HIERARCHY
ROOT joint_Root
{
	OFFSET 0.0 0.0 0.0
	CHANNELS 6 Xposition Yposition Zposition Zrotation Xrotation Yrotation 
	JOINT Hips
	{
		OFFSET -17.1583 93.1646 452.98
		CHANNELS 6 Xposition Yposition Zposition Zrotation Xrotation Yrotation 
		JOINT Spine
		{
			OFFSET 15.7357 0.0 0.0
			CHANNELS 6 Xposition Yposition Zposition Zrotation Xrotation Yrotation 
			JOINT Chest
			{
				OFFSET 8.98455 -0.406207 0.0
				CHANNELS 6 Xposition Yposition Zposition Zrotation Xrotation Yrotation 
				JOINT Neck
				{
					OFFSET 16.3773 0.0 0.0
					CHANNELS 6 Xposition Yposition Zposition Zrotation Xrotation Yrotation 
					JOINT Head
					{
						OFFSET 6.45672 0.0 0.0
						CHANNELS 6 Xposition Yposition Zposition Zrotation Xrotation Yrotation 
						End Site
						{
							OFFSET 0.0 0.0 0.0
						}
					}
				}
				JOINT Shoulder_L
				{
					OFFSET 12.9942 -0.242716 4.98039
					CHANNELS 6 Xposition Yposition Zposition Zrotation Xrotation Yrotation 
					JOINT UpperArm_L
					{
						OFFSET 5.34809 0.0 0.0
						CHANNELS 6 Xposition Yposition Zposition Zrotation Xrotation Yrotation 
						JOINT LowerArm_L
						{
							OFFSET 24.3286 1.87007e-05 0.0
							CHANNELS 6 Xposition Yposition Zposition Zrotation Xrotation Yrotation 
							JOINT Hand_L
							{
								OFFSET 22.2916 0.0 0.0
								CHANNELS 6 Xposition Yposition Zposition Zrotation Xrotation Yrotation 
								End Site
								{
									OFFSET 0.0 0.0 0.0
								}
							}
						}
					}
				}
				JOINT Shoulder_R
				{
					OFFSET 12.9945 -0.242716 -4.98039
					CHANNELS 6 Xposition Yposition Zposition Zrotation Xrotation Yrotation 
					JOINT UpperArm_R
					{
						OFFSET -5.34813 0.0 0.0
						CHANNELS 6 Xposition Yposition Zposition Zrotation Xrotation Yrotation 
						JOINT LowerArm_R
						{
							OFFSET -24.3289 0.000322201 0.0
							CHANNELS 6 Xposition Yposition Zposition Zrotation Xrotation Yrotation 
							JOINT Hand_R
							{
								OFFSET -22.2915 -0.000108084 0.0
								CHANNELS 6 Xposition Yposition Zposition Zrotation Xrotation Yrotation 
								End Site
								{
									OFFSET 0.0 0.0 0.0
								}
							}
						}
					}
				}
			}
		}
		JOINT UpperLeg_L
		{
			OFFSET -2.19248 -6.46944 0.0
			CHANNELS 6 Xposition Yposition Zposition Zrotation Xrotation Yrotation 
			JOINT LowerLeg_L
			{
				OFFSET 39.0811 0.0 -1.23785e-05
				CHANNELS 6 Xposition Yposition Zposition Zrotation Xrotation Yrotation 
				JOINT Foot_L
				{
					OFFSET 40.9854 0.0 -1.26872e-05
					CHANNELS 6 Xposition Yposition Zposition Zrotation Xrotation Yrotation 
					JOINT Toes_L
					{
						OFFSET 11.7543 0.0 0.0
						CHANNELS 6 Xposition Yposition Zposition Zrotation Xrotation Yrotation 
						End Site
						{
							OFFSET 0.0 0.0 0.0
						}
					}
				}
			}
		}
		JOINT UpperLeg_R
		{
			OFFSET -2.19251 6.46944 0.0
			CHANNELS 6 Xposition Yposition Zposition Zrotation Xrotation Yrotation 
			JOINT LowerLeg_R
			{
				OFFSET -39.0811 -0.00228153 -0.0401928
				CHANNELS 6 Xposition Yposition Zposition Zrotation Xrotation Yrotation 
				JOINT Foot_R
				{
					OFFSET -40.9854 0.0 0.0
					CHANNELS 6 Xposition Yposition Zposition Zrotation Xrotation Yrotation 
					JOINT Toes_R
					{
						OFFSET -11.7543 0.0 0.0
						CHANNELS 6 Xposition Yposition Zposition Zrotation Xrotation Yrotation 
						End Site
						{
							OFFSET 0.0 0.0 0.0
						}
					}
				}
			}
		}
	}
}
MOTION
Frames:	7
Frame Time:	0.0333333
0.000000 0.000000 0.000000 0.000000 0.000000 -0.000000 -1.446000 93.079900 -2.005960 87.825600 0.195956 3.302300 15.735700 0.000005 -0.000001 89.443000 86.095600 -88.135200 8.984550 -0.406207 -0.000000 0.045544 -0.163964 2.614120 16.377300 -0.000001 -0.000001 -1.490330 2.379720 0.484520 6.456720 -0.000001 -0.000000 3.484610 3.355060 -0.835816 12.994200 -0.242716 4.980390 -92.157300 6.861030 -72.498900 5.348090 -0.000007 -0.000001 -69.157100 23.204000 -5.248000 24.328600 0.000019 0.000005 7.301990 25.961600 -16.315100 22.291600 -0.000001 0.000005 -10.886800 5.018470 6.924510 12.994500 -0.242716 -4.980390 89.444300 2.122010 -75.321900 -5.348130 -0.000001 -0.000004 -71.021200 21.795600 -7.195040 -24.328900 0.000322 -0.000009 -1.035870 -11.086200 -5.369760 -22.291500 -0.000108 -0.000004 -9.160290 5.063030 5.948770 -2.192480 -6.469440 -0.000000 -172.567000 -5.433960 -1.018040 39.081100 -0.000007 -0.000012 0.020681 -0.065689 17.476300 40.985400 -0.000006 -0.000013 -1.426470 12.806700 -68.504200 11.754300 -0.000000 0.000003 -0.000022 0.167999 -9.762840 -2.192510 6.469440 -0.000001 178.620000 8.144440 -179.377000 -39.081100 -0.002282 -0.040193 0.063956 -0.226024 15.014800 -40.985400 0.000008 0.000006 -2.788850 3.792210 -69.010400 -11.754300 -0.000006 -0.000006 -0.007492 0.251504 -6.360120
0.000000 0.000000 0.000000 0.000000 0.000000 -0.000000 -1.417710 93.068800 -1.372330 87.813400 0.521850 2.826780 15.735700 0.000005 -0.000001 89.529400 86.452300 -88.253800 8.984550 -0.406207 -0.000000 -0.667809 -0.152108 2.549080 16.377300 -0.000001 -0.000001 -2.117090 2.157290 0.764581 6.456720 -0.000001 -0.000000 3.172060 3.257610 -0.842338 12.994200 -0.242716 4.980390 -92.178600 6.668510 -71.861800 5.348090 -0.000007 -0.000001 -67.192900 15.525800 -6.404360 24.328600 0.000019 0.000005 5.587220 25.958400 -12.597400 22.291600 -0.000001 0.000005 -12.704600 5.000950 7.300460 12.994500 -0.242716 -4.980390 89.593000 1.484990 -74.670300 -5.348130 -0.000001 -0.000004 -70.429900 12.709200 -6.482990 -24.328900 0.000322 -0.000009 -0.495081 -14.545100 -1.968470 -22.291500 -0.000108 -0.000004 -10.260500 5.046010 6.325730 -2.192480 -6.469440 -0.000000 -172.535000 -5.657180 -0.951267 39.081100 -0.000007 -0.000012 0.015499 -0.050233 17.147200 40.985400 -0.000006 -0.000013 -1.327670 13.233600 -68.669900 11.754300 -0.000000 0.000003 -0.000305 0.172606 -9.575710 -2.192510 6.469440 -0.000001 178.524000 8.883340 -179.132000 -39.081100 -0.002282 -0.040193 0.056659 -0.206208 14.499600 -40.985400 0.000008 0.000006 -2.943130 4.235980 -69.011900 -11.754300 -0.000006 -0.000006 -0.007664 0.252933 -6.301790
0.000000 0.000000 0.000000 0.000000 0.000000 -0.000000 -1.379860 93.047300 -0.653982 87.802500 0.759096 2.177660 15.735700 0.000005 -0.000001 89.874800 86.994300 -88.658200 8.984550 -0.406207 -0.000000 -1.752220 -0.114145 2.430920 16.377300 -0.000001 -0.000001 -2.639000 1.924920 0.902369 6.456720 -0.000001 -0.000000 2.904950 3.112700 -0.616909 12.994200 -0.242716 4.980390 -92.086800 6.142760 -71.195100 5.348090 -0.000007 -0.000001 -64.574400 4.208020 -7.198840 24.328600 0.000019 0.000005 3.737230 25.010800 -8.782000 22.291600 -0.000001 0.000005 -14.274000 4.916360 9.052110 12.994500 -0.242716 -4.980390 89.791600 0.718749 -73.828800 -5.348130 -0.000001 -0.000004 -68.223200 3.343450 -5.851610 -24.328900 0.000322 -0.000009 -0.000623 -17.483700 -0.000097 -22.291500 -0.000108 -0.000004 -11.856000 4.999600 7.328510 -2.192480 -6.469440 -0.000000 -172.509000 -5.942970 -0.957509 39.081100 -0.000007 -0.000012 0.007453 -0.024716 16.782000 40.985400 -0.000006 -0.000013 -1.227440 13.640600 -68.896500 11.754300 -0.000000 0.000003 -0.000303 0.172580 -9.576790 -2.192510 6.469440 -0.000001 178.475000 9.548030 -178.941000 -39.081100 -0.002282 -0.040193 0.050656 -0.191735 13.864500 -40.985400 0.000008 0.000006 -2.930520 4.553710 -69.046100 -11.754300 -0.000006 -0.000006 -0.008483 0.259601 -6.029420
0.000000 0.000000 0.000000 0.000000 0.000000 -0.000000 -1.334650 93.030800 0.158584 87.835700 0.948626 1.337690 15.735700 0.000005 -0.000001 88.143400 87.657600 -86.952300 8.984550 -0.406207 -0.000000 -3.079820 -0.264401 2.375610 16.377300 -0.000001 -0.000001 -3.425540 1.798520 0.992403 6.456720 -0.000001 -0.000000 2.888790 3.161910 -0.965171 12.994200 -0.242716 4.980390 -91.979200 5.597490 -70.491100 5.348090 -0.000007 -0.000001 -60.613300 -8.448660 -7.276690 24.328600 0.000019 0.000005 2.300980 22.937100 -5.885700 22.291600 -0.000001 0.000005 -14.512000 4.726520 12.673900 12.994500 -0.242716 -4.980390 90.072600 -0.235114 -72.850400 -5.348130 -0.000001 -0.000004 -64.569400 -6.790080 -4.969350 -24.328900 0.000322 -0.000009 -0.001000 -18.729000 -0.000104 -22.291500 -0.000108 -0.000004 -11.523300 4.916140 9.050170 -2.192480 -6.469440 -0.000000 -172.576000 -6.158970 -1.004140 39.081100 -0.000007 -0.000012 0.000296 -0.001016 16.240300 40.985400 -0.000006 -0.000013 -1.161870 13.848900 -69.196400 11.754300 -0.000000 0.000003 -0.000597 0.177136 -9.391710 -2.192510 6.469440 -0.000001 178.405000 10.109200 -178.823000 -39.081100 -0.002282 -0.040193 0.042236 -0.167650 13.064000 -40.985400 0.000008 0.000006 -3.050460 4.831990 -68.985800 -11.754300 -0.000006 -0.000006 -0.008844 0.262451 -5.912990
0.000000 0.000000 0.000000 0.000000 0.000000 -0.000000 -1.288640 93.051700 0.955633 87.863300 0.988611 -0.002724 15.735700 0.000005 -0.000001 83.636100 88.455200 -82.458000 8.984550 -0.406207 -0.000000 -4.689560 -0.470132 2.338710 16.377300 -0.000001 -0.000001 -4.603340 1.736650 0.954277 6.456720 -0.000001 -0.000000 2.797210 3.256930 -1.450590 12.994200 -0.242716 4.980390 -91.919500 5.122890 -69.426900 5.348090 -0.000007 -0.000001 -54.997400 -19.950900 -7.145300 24.328600 0.000019 0.000005 1.412100 21.605800 -3.829600 22.291600 -0.000001 0.000005 -13.392400 4.519920 16.262600 12.994500 -0.242716 -4.980390 90.285700 -0.877924 -71.971600 -5.348130 -0.000001 -0.000004 -59.304900 -16.398400 -3.143000 -24.328900 0.000322 -0.000009 -0.001270 -22.538500 -0.000126 -22.291500 -0.000108 -0.000004 -7.427290 4.883640 9.707300 -2.192480 -6.469440 -0.000000 -172.722000 -6.176890 -1.282450 39.081100 -0.000007 -0.000012 -0.001192 0.004382 15.205100 40.985400 -0.000006 -0.000013 -1.208190 13.730400 -69.299100 11.754300 -0.000000 0.000003 -0.000708 0.178801 -9.324040 -2.192510 6.469440 -0.000001 178.397000 10.207100 -179.064000 -39.081100 -0.002282 -0.040193 0.027049 -0.112758 11.876500 -40.985400 0.000008 0.000006 -3.902400 5.036830 -68.552200 -11.754300 -0.000006 -0.000006 -0.009941 0.270861 -5.569130
0.000000 0.000000 0.000000 0.000000 0.000000 -0.000000 -1.236590 93.086200 1.731660 87.879000 0.849305 -1.471510 15.735700 0.000005 -0.000001 73.340800 89.247300 -72.190000 8.984550 -0.406207 -0.000000 -6.317110 -0.572184 2.273140 16.377300 -0.000001 -0.000001 -5.993860 1.798090 0.701278 6.456720 -0.000001 -0.000000 2.502550 3.182690 -1.625230 12.994200 -0.242716 4.980390 -91.814700 4.504830 -68.030500 5.348090 -0.000007 -0.000001 -48.520600 -29.119000 -6.985300 24.328600 0.000019 0.000005 0.963089 20.627100 -2.731820 22.291600 -0.000001 0.000005 -9.376250 4.327630 19.352400 12.994500 -0.242716 -4.980390 90.364900 -1.076650 -71.277400 -5.348130 -0.000001 -0.000004 -52.502400 -24.833900 -1.152930 -24.328900 0.000322 -0.000009 -0.001427 -29.911400 -0.000172 -22.291500 -0.000108 -0.000004 -2.398020 4.969770 7.963200 -2.192480 -6.469440 -0.000000 -172.895000 -6.441210 -1.528430 39.081100 -0.000007 -0.000012 0.003164 -0.012756 13.933700 40.985400 -0.000006 -0.000013 -1.267060 13.602600 -69.449700 11.754300 -0.000000 0.000003 -0.001157 0.185239 -9.062440 -2.192510 6.469440 -0.000001 178.379000 10.140200 -179.375000 -39.081100 -0.002282 -0.040193 0.012152 -0.047751 10.458300 -40.985400 0.000008 0.000006 -5.309200 5.254470 -67.802100 -11.754300 -0.000006 -0.000006 -0.009731 0.269282 -5.633740
0.000000 0.000000 0.000000 0.000000 0.000000 -0.000000 -1.198900 93.105700 2.520540 87.914200 0.547023 -2.721840 15.735700 0.000005 -0.000001 1.719920 89.817200 -0.615403 8.984550 -0.406207 -0.000000 -7.749310 -0.513831 2.178760 16.377300 -0.000001 -0.000001 -7.293570 1.801930 0.542968 6.456720 -0.000001 -0.000000 1.943920 2.986330 -1.921570 12.994200 -0.242716 4.980390 -91.352200 3.097820 -66.402100 5.348090 -0.000007 -0.000001 -42.803300 -36.505300 -7.623360 24.328600 0.000019 0.000005 0.417093 19.814600 -1.229880 22.291600 -0.000001 0.000005 -3.374850 4.158270 21.920200 12.994500 -0.242716 -4.980390 90.589900 -1.650980 -70.337300 -5.348130 -0.000001 -0.000004 -45.735500 -31.836700 -0.105805 -24.328900 0.000322 -0.000009 -0.001113 -37.278200 -0.000226 -22.291500 -0.000108 -0.000004 4.717750 5.046000 6.336650 -2.192480 -6.469440 -0.000000 -173.041000 -6.804880 -1.393550 39.081100 -0.000007 -0.000012 0.007821 -0.035452 12.441900 40.985400 -0.000006 -0.000013 -1.356550 13.556300 -69.486100 11.754300 -0.000000 0.000003 -0.001433 0.189008 -8.909240 -2.192510 6.469440 -0.000001 178.295000 10.056700 -179.360000 -39.081100 -0.002282 -0.040193 0.003816 -0.003040 8.885080 -40.985400 0.000008 0.000006 -6.567610 5.592430 -67.139400 -11.754300 -0.000006 -0.000006 -0.010725 0.276648 -5.332420
